<?xml version="1.0" standalone="no"?>
<!DOCTYPE svg PUBLIC "-//W3C//DTD SVG 20010904//EN"
 "http://www.w3.org/TR/2001/REC-SVG-20010904/DTD/svg10.dtd">
<svg version="1.0" xmlns="http://www.w3.org/2000/svg"
 width="700.000000pt" height="700.000000pt" viewBox="0 0 700.000000 700.000000"
 preserveAspectRatio="xMidYMid meet">
<g transform="translate(0.000000,700.000000) scale(0.100000,-0.100000)"
fill="#000000" stroke="none">
<path d="M1140 6994 c-247 -37 -409 -96 -590 -217 -96 -64 -263 -231 -327
-327 -97 -145 -161 -297 -200 -472 -17 -79 -18 -199 -18 -2478 0 -2279 1
-2399 18 -2478 58 -263 167 -464 351 -648 179 -179 372 -286 626 -346 70 -16
132 -21 356 -25 l270 -5 23 133 c46 260 120 510 237 795 30 75 54 137 52 138
-36 23 -224 196 -324 297 -583 597 -852 1300 -769 2014 62 532 206 1171 330
1465 111 263 279 392 486 374 105 -10 201 -56 269 -131 219 -240 627 -1651
774 -2678 21 -147 56 -428 56 -457 0 -4 26 2 57 13 244 84 568 128 810 109
218 -18 377 -48 541 -104 39 -14 72 -22 72 -18 0 24 43 372 60 492 90 608 285
1421 483 2006 165 487 251 646 394 721 100 53 202 65 299 37 185 -53 301 -203
409 -527 139 -414 285 -1213 285 -1555 0 -619 -271 -1234 -769 -1746 -109
-111 -250 -243 -315 -293 l-28 -22 57 -137 c111 -266 191 -535 236 -793 l23
-133 270 5 c224 4 286 9 356 25 254 60 447 167 626 346 183 183 293 387 350
646 18 82 19 179 19 2480 0 2301 -1 2398 -19 2480 -57 259 -167 463 -350 646
-181 181 -369 284 -641 351 -65 16 -235 17 -2445 19 -1306 1 -2386 0 -2400 -2z"/>
</g>
</svg>
